<?xml version="1.0" encoding="UTF-8"?>
<svg xmlns="http://www.w3.org/2000/svg" version="1.1" viewBox="0 0 1920 1080">
  <defs>
    <style>
      .cls-1 {
        stroke-miterlimit: 10;
        stroke-width: 5px;
      }

      .cls-1, .cls-2 {
        fill: none;
        stroke: #ff8b00;
      }

      .cls-2 {
        stroke-miterlimit: 10;
        stroke-width: 5px;
      }
    </style>
  </defs>
  <!-- Generator: Adobe Illustrator 28.6.0, SVG Export Plug-In . SVG Version: 1.2.0 Build 709)  -->
  <g>
    <g id="Layer_1">
      <g id="Layer_1-2" data-name="Layer_1">
        <path class="cls-1" d="M1099.7,126.7l259.3,148c39.2,22.4,52.6,71.9,29.9,110.6l-376.8,644.3c-22.6,38.7-72.7,51.9-111.9,29.6l-259.3-148c-39.2-22.4-52.6-71.9-29.9-110.6L987.8,156.3c22.6-38.7,72.7-51.9,111.9-29.6Z"/>
        <path class="cls-1" d="M740.4,773.9l230.6,131.6c24,13.7,32.3,44.1,18.4,67.8l-13.9,23.7c-13.9,23.7-44.6,31.9-68.7,18.1l-230.6-131.6c-24-13.7-32.3-44.1-18.4-67.8l13.9-23.7c13.9-23.7,44.6-31.9,68.7-18.1Z"/>
        <path class="cls-1" d="M1208.6,71.1c23-39.4,74.1-52.8,114.1-30,40,22.8,53.8,73.3,30.7,112.7-23,39.4-74.1,52.8-114.1,30-40-22.8-53.8-73.3-30.7-112.7Z"/>
        <path class="cls-1" d="M1306.4,69h0c29,16.6,39,53.3,22.2,82l-46.7,79.9c-16.8,28.7-53.9,38.5-82.9,21.9h0c-29-16.6-39-53.3-22.2-82l46.7-79.9c16.8-28.7,53.9-38.5,82.9-21.9Z"/>
        <path class="cls-1" d="M685.7,815.8c10.4-17.8,33.5-23.9,51.6-13.5,18.1,10.3,24.3,33.1,13.9,50.9-10.4,17.8-33.5,23.9-51.6,13.5-18.1-10.3-24.3-33.1-13.9-50.9Z"/>
        <path class="cls-1" d="M896,935.9c10.4-17.8,33.5-23.9,51.6-13.5,18.1,10.3,24.3,33.1,13.9,50.9-10.4,17.8-33.5,23.9-51.6,13.5-18.1-10.3-24.3-33.1-13.9-50.9Z"/>
        <polygon class="cls-1" points="790.6 843.2 886.2 897.7 857.6 946.5 762.1 892 790.6 843.2"/>
        <path class="cls-2" d="M1176.3,172c-4.3,8.5,15.2,28.4,43.9,44.8,28.7,16.4,53.7,22.5,60.5,16.1"/>
        <path class="cls-2" d="M1186.9,153.8c-4.3,8.5,15.2,28.4,43.9,44.8,28.7,16.4,53.7,22.5,60.5,16.1"/>
        <path class="cls-2" d="M1197.4,135.7c-4.3,8.5,15.2,28.4,43.9,44.8,28.7,16.4,53.7,22.5,60.5,16.1"/>
        <path class="cls-2" d="M1208.5,116.9c-4.3,8.5,15.2,28.4,43.9,44.8,27.6,15.7,53.7,22.5,60.5,16.1"/>
        <path class="cls-2" d="M1219.8,97.4c-4.3,8.5,15.2,28.4,43.9,44.8s53.7,22.5,60.5,16.1"/>
      </g>
    </g>
  </g>
</svg>